<?xml version="1.0" encoding="UTF-8"?>
<svg width="329" height="45" viewBox="0 0 329 45" fill="none" xmlns="http://www.w3.org/2000/svg">
<path d="M53.0143 35.71L60.8579 44H43.1938L33.6922 32.7128H13.4135V44H0.21318V22.1908H37.327C41.4083 22.1908 44.5967 20.3415 44.5967 17.4081C44.5967 14.0921 41.8546 12.4341 37.327 12.4341H0.21318L8.82206 1.33823H36.2429C45.9359 1.33823 58.1796 4.39916 58.1796 16.5791C58.1796 23.2112 54.0346 28.6953 47.02 30.0983C48.4867 31.1823 50.0809 32.7128 53.0143 35.71ZM78.8688 33.0317H115.154L106.672 44H65.6048V1.33823H115.026L106.481 12.4341H78.8688V17.5357H112.667L105.078 27.2286H78.8688V33.0317ZM159.196 25.6982L181.452 44H144.083C129.607 44 118.32 36.6665 118.32 22.6372C118.32 7.39633 128.715 0.636762 149.503 0.636762C170.229 0.636762 180.687 7.39633 180.687 22.6372C180.687 25.3155 180.049 27.8026 178.837 29.7794H164.681C166.721 28.2489 167.55 25.8257 167.55 22.6372C167.55 13.4544 162.768 11.7326 149.503 11.7326C136.239 11.7326 131.457 13.4544 131.457 22.6372C131.457 30.5446 136.239 33.0317 144.083 33.0317H146.825C148.547 33.0317 150.46 33.0954 151.99 33.223C150.715 32.394 148.866 31.0548 147.399 29.9069L141.979 25.6982H159.196ZM242.768 1.33823V25.3793C242.768 38.2607 233.904 44.7015 216.176 44.7015C195.642 44.7015 186.778 38.2607 186.778 25.3793V1.33823H199.915V25.3793C199.915 31.6925 202.593 33.7331 216.176 33.7331C226.315 33.7331 229.504 31.3736 229.504 25.3793V1.33823H242.768ZM263.641 1.33823V44H250.441V1.33823H263.641ZM328.168 17.3444C328.168 26.7822 320.451 33.0954 307.187 33.0954H284.868V44H271.732V22.1908H308.463C312.544 22.1908 314.904 20.214 314.904 17.2806C314.904 14.2834 312.544 12.4341 308.463 12.4341H271.732L280.468 1.33823H307.251C320.451 1.33823 328.168 7.84271 328.168 17.3444Z" fill="#3E82F8"/>
</svg> 